<?xml version="1.0" encoding="UTF-8" standalone="no"?>
<svg
   xmlns:dc="http://purl.org/dc/elements/1.1/"
   xmlns:cc="http://creativecommons.org/ns#"
   xmlns:rdf="http://www.w3.org/1999/02/22-rdf-syntax-ns#"
   xmlns:svg="http://www.w3.org/2000/svg"
   xmlns="http://www.w3.org/2000/svg"
   xmlns:sodipodi="http://sodipodi.sourceforge.net/DTD/sodipodi-0.dtd"
   xmlns:inkscape="http://www.inkscape.org/namespaces/inkscape"
   color-rendering="auto"
   color-interpolation="auto"
   text-rendering="auto"
   stroke-miterlimit="10"
   shape-rendering="auto"
   font-weight="normal"
   font-style="normal"
   font-size="12"
   image-rendering="auto"
   id="svg3916"
   version="1.1"
   inkscape:version="0.48.2 r9819"
   width="100"
   height="100"
   sodipodi:docname="airplane.svg"
   style="font-size:12px;font-style:normal;font-weight:normal;fill:#000000;fill-opacity:1;stroke:#000000;stroke-width:1;stroke-linecap:square;stroke-linejoin:miter;stroke-miterlimit:10;stroke-opacity:1;stroke-dasharray:none;stroke-dashoffset:0;font-family:Dialog">
  <metadata
     id="metadata3927">
    <rdf:RDF>
      <cc:Work
         rdf:about="">
        <dc:format>image/svg+xml</dc:format>
        <dc:type
           rdf:resource="http://purl.org/dc/dcmitype/StillImage" />
      </cc:Work>
    </rdf:RDF>
  </metadata>
  <sodipodi:namedview
     pagecolor="#ffffff"
     bordercolor="#666666"
     borderopacity="1"
     objecttolerance="10"
     gridtolerance="10"
     guidetolerance="10"
     inkscape:pageopacity="0"
     inkscape:pageshadow="2"
     inkscape:window-width="954"
     inkscape:window-height="1016"
     id="namedview3925"
     showgrid="false"
     fit-margin-top="0"
     fit-margin-left="0"
     fit-margin-right="0"
     fit-margin-bottom="0"
     inkscape:zoom="3.6203867"
     inkscape:cx="75.661974"
     inkscape:cy="46.692987"
     inkscape:window-x="960"
     inkscape:window-y="0"
     inkscape:window-maximized="0"
     inkscape:current-layer="svg3916" />
  <!--Unicode Character 'AIRPLANE' (U+2708)-->
  <defs
     id="genericDefs" />
  <g
     id="g3919"
     transform="matrix(0.45996848,0,0,0.45996848,-2.2639189,-83.990337)">
    <g
       id="g3921">
      <path
         d="m 84.9375,197.5781 15.8906,0 q 4.5,0 7.0313,1.8985 2.5312,1.8984 6.1875,9.2109 28.8281,57.5156 31.7812,62.5078 2.9531,4.9922 12.2344,5.5547 35.0156,1.125 44.7891,2.8125 9.7734,1.6875 14.625,5.625 4.8515,3.9375 4.8515,6.1875 0,2.5312 -3.9375,6.1172 -3.9375,3.5859 -12.0234,5.5547 -8.086,1.9687 -27.4922,2.9531 -19.4062,0.9844 -20.8125,0.9844 -4.5,0 -7.3828,1.2656 -2.8828,1.2656 -4.7109,4.1484 -1.8282,2.8828 -11.9532,22.8516 l -19.9687,39.375 q -4.0781,8.2969 -6.75,9.7734 -2.6719,1.4766 -6.4688,1.4766 l -15.8906,0 q -3.6563,0 -3.6563,-3.2344 0,-2.1094 4.2188,-9.4218 8.8594,-15.75 15.1172,-34.5235 6.2578,-18.7734 6.2578,-28.0547 0,-2.1094 -1.6172,-2.9531 -1.6172,-0.8437 -5.5547,-1.2656 l -46.125,-5.7657 q -3.2343,-0.5624 -6.0469,-0.5624 -2.5312,0 -3.7968,1.2656 -1.2656,1.2656 -5.7656,13.9218 -3.9376,12.7969 -8.2969,12.7969 -0.1407,0 -7.2422,-0.7031 -7.1016,-0.7031 -8.2969,-0.9844 -1.1953,-0.2812 -1.8984,-1.125 -0.7032,-0.8437 -0.7032,-2.1094 0,-2.1093 2.25,-9 l 4.3594,-13.2187 0,-1.4063 q 0,-3.0937 -5.4844,-3.5156 -7.7343,-0.8437 -7.7343,-4.3594 0,-3.375 7.7343,-4.2187 5.4844,-0.8437 5.4844,-3.5156 l 0,-1.4063 q -6.6094,-20.3906 -6.6094,-22.5 0,-1.2656 0.7032,-2.039 0.7031,-0.7735 1.8984,-1.0547 1.1953,-0.2813 8.2266,-0.9141 7.0312,-0.6328 7.1718,-0.6328 2.6719,0 4.5704,3.0234 1.8984,3.0235 5.414,13.4297 2.5313,8.0157 4.0078,9.7735 1.4766,1.7578 4.2891,1.7578 0.8437,0 18.2813,-2.1094 l 27,-3.2344 q 9.7031,-1.125 11.7421,-2.3203 2.0391,-1.1953 2.0391,-3.0234 0,-11.25 -7.9453,-32.4141 -7.9453,-21.164 -14.5547,-32.6953 -3.0938,-5.3437 -3.0938,-7.1719 0,-2.8125 3.6563,-2.8125 z"
         id="path3923"
         inkscape:connector-curvature="0"
         style="stroke:none" />
    </g>
  </g>
</svg>
