<?xml version="1.0" encoding="UTF-8" standalone="no"?>
<svg
   xmlns:dc="http://purl.org/dc/elements/1.1/"
   xmlns:cc="http://creativecommons.org/ns#"
   xmlns:rdf="http://www.w3.org/1999/02/22-rdf-syntax-ns#"
   xmlns:svg="http://www.w3.org/2000/svg"
   xmlns="http://www.w3.org/2000/svg"
   xmlns:sodipodi="http://sodipodi.sourceforge.net/DTD/sodipodi-0.dtd"
   xmlns:inkscape="http://www.inkscape.org/namespaces/inkscape"
   color-rendering="auto"
   color-interpolation="auto"
   text-rendering="auto"
   stroke-miterlimit="10"
   shape-rendering="auto"
   font-weight="normal"
   font-style="normal"
   font-size="12"
   image-rendering="auto"
   id="svg3968"
   version="1.1"
   inkscape:version="0.48.2 r9819"
   width="100"
   height="100"
   sodipodi:docname="atom.svg"
   style="font-size:12px;font-style:normal;font-weight:normal;fill:#000000;fill-opacity:1;stroke:#000000;stroke-width:1;stroke-linecap:square;stroke-linejoin:miter;stroke-miterlimit:10;stroke-opacity:1;stroke-dasharray:none;stroke-dashoffset:0;font-family:Dialog">
  <metadata
     id="metadata3979">
    <rdf:RDF>
      <cc:Work
         rdf:about="">
        <dc:format>image/svg+xml</dc:format>
        <dc:type
           rdf:resource="http://purl.org/dc/dcmitype/StillImage" />
      </cc:Work>
    </rdf:RDF>
  </metadata>
  <sodipodi:namedview
     pagecolor="#ffffff"
     bordercolor="#666666"
     borderopacity="1"
     objecttolerance="10"
     gridtolerance="10"
     guidetolerance="10"
     inkscape:pageopacity="0"
     inkscape:pageshadow="2"
     inkscape:window-width="954"
     inkscape:window-height="1016"
     id="namedview3977"
     showgrid="false"
     fit-margin-top="0"
     fit-margin-left="0"
     fit-margin-right="0"
     fit-margin-bottom="0"
     inkscape:zoom="3.5881183"
     inkscape:cx="82.84879"
     inkscape:cy="101.14174"
     inkscape:window-x="960"
     inkscape:window-y="0"
     inkscape:window-maximized="0"
     inkscape:current-layer="svg3968" />
  <!--Unicode Character 'ATOM SYMBOL' (U+269B)-->
  <defs
     id="genericDefs" />
  <g
     id="g3971"
     transform="matrix(0.36730946,0,0,0.36730946,2.8677686,-48.140496)">
    <g
       id="g3973">
      <path
         d="m 127.9688,403.3125 q -4.2188,0 -12.6563,-5.0625 -8.4375,-5.0625 -16.4531,-17.4375 -8.0156,-12.375 -14.4844,-31.7813 -13.5,3.0938 -24.75,3.0938 -14.0625,0 -23.9062,-3.0938 Q 25.875,345.9375 18.5625,338.4844 11.25,331.0312 11.25,320.625 11.25,311.0625 18,296.1562 24.75,281.25 38.25,267.1875 24.75,253.125 18,238.2188 11.25,223.3125 11.25,213.75 q 0,-10.4062 7.3125,-17.8594 7.3125,-7.4531 17.1563,-10.5468 9.8437,-3.0938 23.9062,-3.0938 11.25,0 24.75,3.0938 6.4688,-19.4063 14.4844,-31.7813 8.0156,-12.375 16.4531,-17.4375 8.4375,-5.0625 12.6563,-5.0625 4.2187,0 12.6562,5.0625 8.4375,5.0625 16.4531,17.4375 8.0157,12.375 14.4844,31.7813 13.5,-3.0938 24.75,-3.0938 14.0625,0 23.9063,3.0938 9.8437,3.0937 17.1562,10.5468 7.3125,7.4532 7.3125,17.8594 0,9.5625 -6.75,24.4688 -6.75,14.9062 -20.25,28.9687 13.5,14.0625 20.25,28.9687 6.75,14.9063 6.75,24.4688 0,10.4062 -7.3125,17.8594 -7.3125,7.4531 -17.1562,10.5468 -9.8438,3.0938 -23.9063,3.0938 -11.25,0 -24.75,-3.0938 -6.4687,19.4063 -14.4844,31.7813 -8.0156,12.375 -16.4531,17.4375 -8.4375,5.0625 -12.6562,5.0625 z m 0,-14.625 q 4.7812,0 9.7031,-7.0313 4.9219,-7.0312 9.4219,-17.7187 4.5,-10.6875 6.4687,-19.6875 -12.9375,-3.9375 -25.5937,-10.125 -12.6563,6.1875 -25.5938,10.125 1.9688,9 6.4688,19.6875 4.5,10.6875 9.4218,17.7187 4.9219,7.0313 9.7032,7.0313 z m -67.5,-47.8125 q 7.5937,0 20.5312,-1.9688 Q 77.625,326.8125 74.5312,301.5 60.75,290.5312 46.6875,277.3125 q -8.4375,9.8437 -12.6563,21.2344 -4.2187,11.3906 -4.2187,22.0781 0,4.5 3.0937,9.2812 3.0938,4.7813 9,7.875 5.9063,3.0938 18.5626,3.0938 z m 135,0 q 12.6562,0 18.5624,-3.0938 5.9063,-3.0937 9,-7.875 3.0938,-4.7812 3.0938,-9.2812 0,-10.6875 -4.2188,-22.0781 -4.2187,-11.3907 -12.6562,-21.2344 -14.0625,13.2187 -27.8438,24.1875 -3.0937,25.3125 -6.4687,37.4062 12.9375,1.9688 20.5313,1.9688 z m -95.0626,-7.3125 q 8.4376,-2.8125 15.1876,-6.1875 L 97.875,316.9688 q 0.8438,10.125 2.5312,16.5937 z m 55.125,0 q 1.6876,-6.4687 2.5313,-16.5937 l -17.7187,10.4062 q 6.75,3.375 15.1874,6.1875 z M 127.9688,319.5 q 14.9062,-9.2812 31.2187,-21.375 1.125,-15.1875 1.125,-30.9375 0,-15.75 -1.125,-30.9375 -16.3125,-12.0938 -31.2187,-21.375 -14.9063,9.2812 -31.2188,21.375 -1.125,15.1875 -1.125,30.9375 0,15.75 1.125,30.9375 16.3125,12.0938 31.2188,21.375 z m 0,-35.4375 q -5.3438,0 -9,-2.1094 -3.6563,-2.1093 -5.7657,-5.7656 -2.1093,-3.6563 -2.1093,-9 0,-5.3437 2.1093,-9 2.1094,-3.6563 5.7657,-5.7656 3.6562,-2.1094 9,-2.1094 5.3437,0 9,2.1094 3.6562,2.1093 5.7656,5.7656 2.1094,3.6563 2.1094,9 0,5.3437 -2.1094,9 -2.1094,3.6563 -5.7656,5.7656 -3.6563,2.1094 -9,2.1094 z m -54.2813,-0.2813 0,-33.1874 -7.875,7.0312 -9.5625,9.5625 9.5625,9.5625 7.875,7.0312 z m 108.5625,0 7.875,-7.0312 9.5625,-9.5625 -9.5625,-9.5625 -7.875,-7.0312 0,33.1874 z M 46.6875,257.0625 Q 60.75,243.8438 74.5312,232.875 77.625,207.5625 81,195.4688 68.0625,193.5 60.4688,193.5 q -12.6563,0 -18.5626,3.0938 -5.9062,3.0937 -9,7.875 -3.0937,4.7812 -3.0937,9.2812 0,10.6875 4.2187,22.0781 4.2188,11.3907 12.6563,21.2344 z m 162.5625,0 q 8.4375,-9.8437 12.6562,-21.2344 4.2188,-11.3906 4.2188,-22.0781 0,-4.5 -3.0938,-9.2812 -3.0937,-4.7813 -9,-7.875 -5.9062,-3.0938 -18.5624,-3.0938 -7.5938,0 -20.5313,1.9688 3.375,12.0937 6.4687,37.4062 13.7813,10.9688 27.8438,24.1875 z M 97.875,217.4062 115.5938,207 q -6.75,-3.375 -15.1876,-6.1875 -1.6874,6.4687 -2.5312,16.5937 z m 60.1875,0 q -0.8437,-10.125 -2.5313,-16.5937 -8.4374,2.8125 -15.1874,6.1875 l 17.7187,10.4062 z M 127.9688,200.25 q 12.6562,-6.1875 25.5937,-10.125 -1.9687,-9 -6.4687,-19.6875 -4.5,-10.6875 -9.4219,-17.7187 -4.9219,-7.0313 -9.7031,-7.0313 -4.7813,0 -9.7032,7.0313 -4.9218,7.0312 -9.4218,17.7187 -4.5,10.6875 -6.4688,19.6875 12.9375,3.9375 25.5938,10.125 z"
         id="path3975"
         inkscape:connector-curvature="0"
         style="stroke:none" />
    </g>
  </g>
</svg>
