<?xml version="1.0" encoding="UTF-8" standalone="no"?>
<!-- Created with Inkscape (http://www.inkscape.org/) -->

<svg
   xmlns:dc="http://purl.org/dc/elements/1.1/"
   xmlns:cc="http://creativecommons.org/ns#"
   xmlns:rdf="http://www.w3.org/1999/02/22-rdf-syntax-ns#"
   xmlns:svg="http://www.w3.org/2000/svg"
   xmlns="http://www.w3.org/2000/svg"
   xmlns:sodipodi="http://sodipodi.sourceforge.net/DTD/sodipodi-0.dtd"
   xmlns:inkscape="http://www.inkscape.org/namespaces/inkscape"
   width="200"
   height="199.99997"
   id="svg2"
   version="1.1"
   inkscape:version="0.48.2 r9819"
   sodipodi:docname="planet.svg">
  <defs
     id="defs4" />
  <sodipodi:namedview
     id="base"
     pagecolor="#ffffff"
     bordercolor="#666666"
     borderopacity="1.0"
     inkscape:pageopacity="0.0"
     inkscape:pageshadow="2"
     inkscape:zoom="1.4"
     inkscape:cx="132.79201"
     inkscape:cy="200.29992"
     inkscape:document-units="px"
     inkscape:current-layer="layer1"
     showgrid="false"
     inkscape:window-width="1914"
     inkscape:window-height="1016"
     inkscape:window-x="0"
     inkscape:window-y="0"
     inkscape:window-maximized="0"
     fit-margin-top="0"
     fit-margin-left="0"
     fit-margin-right="0"
     fit-margin-bottom="0" />
  <metadata
     id="metadata7">
    <rdf:RDF>
      <cc:Work
         rdf:about="">
        <dc:format>image/svg+xml</dc:format>
        <dc:type
           rdf:resource="http://purl.org/dc/dcmitype/StillImage" />
        <dc:title />
      </cc:Work>
    </rdf:RDF>
  </metadata>
  <g
     inkscape:label="Layer 1"
     inkscape:groupmode="layer"
     id="layer1"
     transform="translate(-96.844095,-955.53265)">
    <path
       style="fill:#000000;fill-opacity:1"
       d="m 238.74112,1097.4297 c 16.14651,-16.1465 21.03409,-39.2913 14.64663,-59.6689 32.42634,-38.69497 49.96665,-71.23888 41.21652,-79.98901 -8.75015,-8.75015 -41.28532,8.7989 -79.98031,41.22525 -20.37849,-6.38913 -43.53012,-1.50955 -59.67757,14.63786 -16.14745,16.1475 -21.02704,39.2991 -14.63789,59.6776 -32.42635,38.695 -49.97541,71.2302 -41.225265,79.9803 8.750135,8.7501 41.294055,-8.7902 79.989045,-41.2165 20.37761,6.3874 43.52232,1.4999 59.66884,-14.6466 z M 251.2405,1032 c -0.53985,-1.2489 -1.12458,-2.4755 -1.75444,-3.6923 18.8484,-24.0463 28.49914,-42.95326 23.22683,-48.22556 -5.26076,-5.26077 -24.08366,4.35129 -48.05102,23.12206 -1.20623,-0.6416 -2.42723,-1.2456 -3.66603,-1.7981 31.72461,-26.16806 57.38288,-40.30776 64.04186,-33.64877 6.67244,6.67244 -7.5274,32.42927 -33.7972,64.24267 z m -77.9291,77.929 c -31.81334,26.2698 -57.57019,40.4697 -64.24263,33.7973 -6.65899,-6.659 7.48071,-32.3173 33.64882,-64.0419 0.55241,1.2388 1.15642,2.4598 1.7981,3.666 -18.77083,23.9674 -28.38288,42.7903 -23.12211,48.0511 5.27231,5.2723 24.17925,-4.3785 48.22561,-23.2269 1.21682,0.6299 2.44334,1.2146 3.69221,1.7544 z m 72.76177,-87.3734 c -2.1116,-3.1441 -4.55289,-6.1415 -7.33205,-8.9207 -2.78212,-2.7821 -5.77283,-5.2189 -8.92064,-7.332 16.6026,-12.76144 28.92027,-19.22679 32.19987,-15.94719 3.2796,3.27959 -3.18584,15.59739 -15.94718,32.19989 z m -82.20613,82.2061 c -16.60251,12.7614 -28.92028,19.2268 -32.19988,15.9472 -3.2796,-3.2796 3.18576,-15.5973 15.94719,-32.1999 2.1131,3.1478 4.54992,6.1386 7.33204,8.9207 2.77916,2.7792 5.77651,5.2204 8.92065,7.332 z"
       id="path3759"
       inkscape:connector-curvature="0" />
  </g>
</svg>
