<?xml version="1.0" encoding="UTF-8" standalone="no"?>
<!-- Created with Inkscape (http://www.inkscape.org/) -->

<svg
   xmlns:dc="http://purl.org/dc/elements/1.1/"
   xmlns:cc="http://creativecommons.org/ns#"
   xmlns:rdf="http://www.w3.org/1999/02/22-rdf-syntax-ns#"
   xmlns:svg="http://www.w3.org/2000/svg"
   xmlns="http://www.w3.org/2000/svg"
   xmlns:sodipodi="http://sodipodi.sourceforge.net/DTD/sodipodi-0.dtd"
   xmlns:inkscape="http://www.inkscape.org/namespaces/inkscape"
   width="100"
   height="100"
   id="svg2"
   version="1.1"
   inkscape:version="0.48.2 r9819"
   sodipodi:docname="planet.svg">
  <defs
     id="defs4" />
  <sodipodi:namedview
     id="base"
     pagecolor="#ffffff"
     bordercolor="#666666"
     borderopacity="1.0"
     inkscape:pageopacity="0.0"
     inkscape:pageshadow="2"
     inkscape:zoom="1.4"
     inkscape:cx="132.79201"
     inkscape:cy="200.29993"
     inkscape:document-units="px"
     inkscape:current-layer="layer1"
     showgrid="false"
     inkscape:window-width="954"
     inkscape:window-height="1016"
     inkscape:window-x="960"
     inkscape:window-y="0"
     inkscape:window-maximized="0"
     fit-margin-top="0"
     fit-margin-left="0"
     fit-margin-right="0"
     fit-margin-bottom="0" />
  <metadata
     id="metadata7">
    <rdf:RDF>
      <cc:Work
         rdf:about="">
        <dc:format>image/svg+xml</dc:format>
        <dc:type
           rdf:resource="http://purl.org/dc/dcmitype/StillImage" />
        <dc:title />
      </cc:Work>
    </rdf:RDF>
  </metadata>
  <g
     inkscape:label="Layer 1"
     inkscape:groupmode="layer"
     id="layer1"
     transform="translate(-96.844095,-1055.5326)">
    <path
       style="fill:#000000;fill-opacity:1"
       d="m 167.79261,1126.4812 c 8.07325,-8.0733 10.51704,-19.6457 7.32331,-29.8345 16.21317,-19.3475 24.98333,-35.6194 20.60826,-39.9945 -4.37507,-4.3751 -20.64266,4.3995 -39.99015,20.6126 -10.18925,-3.1945 -21.76506,-0.7547 -29.83879,7.319 -8.07372,8.0737 -10.51352,19.6495 -7.31894,29.8388 -16.21318,19.3475 -24.987707,35.6151 -20.612635,39.9901 4.375065,4.3751 20.647025,-4.3951 39.994525,-20.6082 10.1888,3.1937 21.76116,0.7499 29.83442,-7.3233 z m 6.24969,-32.7149 c -0.26993,-0.6244 -0.56229,-1.2377 -0.87722,-1.8461 9.4242,-12.0232 14.24957,-21.4767 11.61341,-24.1128 -2.63038,-2.6304 -12.04183,2.1756 -24.02551,11.561 -0.60311,-0.3208 -1.21361,-0.6228 -1.83301,-0.899 15.8623,-13.0841 28.69144,-20.1539 32.02093,-16.8244 3.33622,3.3362 -3.7637,16.2146 -16.8986,32.1213 z m -38.96455,38.9645 c -15.90667,13.1349 -28.7851,20.2349 -32.12132,16.8987 -3.329492,-3.3295 3.74036,-16.1587 16.82441,-32.021 0.27621,0.6194 0.57821,1.2299 0.89905,1.833 -9.38541,11.9837 -14.19144,21.3952 -11.56105,24.0256 2.63615,2.6361 12.08962,-2.1893 24.1128,-11.6135 0.60841,0.315 1.22167,0.6073 1.84611,0.8772 z m 36.38088,-43.6867 c -1.0558,-1.572 -2.27644,-3.0707 -3.66602,-4.4603 -1.39106,-1.3911 -2.88642,-2.6095 -4.46032,-3.666 8.3013,-6.3808 14.46013,-9.6134 16.09993,-7.9736 1.6398,1.6398 -1.59292,7.7987 -7.97359,16.0999 z m -41.10306,41.1031 c -8.30126,6.3807 -14.46014,9.6134 -16.09994,7.9736 -1.6398,-1.6398 1.59288,-7.7987 7.97359,-16.1 1.05655,1.5739 2.27496,3.0693 3.66602,4.4604 1.38958,1.3896 2.88826,2.6102 4.46033,3.666 z"
       id="path3759"
       inkscape:connector-curvature="0" />
  </g>
</svg>
