<?xml version="1.0" encoding="UTF-8" standalone="no"?>
<svg
   xmlns:dc="http://purl.org/dc/elements/1.1/"
   xmlns:cc="http://creativecommons.org/ns#"
   xmlns:rdf="http://www.w3.org/1999/02/22-rdf-syntax-ns#"
   xmlns:svg="http://www.w3.org/2000/svg"
   xmlns="http://www.w3.org/2000/svg"
   xmlns:sodipodi="http://sodipodi.sourceforge.net/DTD/sodipodi-0.dtd"
   xmlns:inkscape="http://www.inkscape.org/namespaces/inkscape"
   color-rendering="auto"
   color-interpolation="auto"
   text-rendering="auto"
   stroke-miterlimit="10"
   shape-rendering="auto"
   font-weight="normal"
   font-style="normal"
   font-size="12"
   image-rendering="auto"
   id="svg3031"
   version="1.1"
   inkscape:version="0.48.2 r9819"
   width="100"
   height="100"
   sodipodi:docname="rocket.svg"
   style="font-size:12px;font-style:normal;font-weight:normal;fill:#000000;fill-opacity:1;stroke:#000000;stroke-width:1;stroke-linecap:square;stroke-linejoin:miter;stroke-miterlimit:10;stroke-opacity:1;stroke-dasharray:none;stroke-dashoffset:0;font-family:Dialog">
  <metadata
     id="metadata3042">
    <rdf:RDF>
      <cc:Work
         rdf:about="">
        <dc:format>image/svg+xml</dc:format>
        <dc:type
           rdf:resource="http://purl.org/dc/dcmitype/StillImage" />
      </cc:Work>
    </rdf:RDF>
  </metadata>
  <sodipodi:namedview
     pagecolor="#ffffff"
     bordercolor="#666666"
     borderopacity="1"
     objecttolerance="10"
     gridtolerance="10"
     guidetolerance="10"
     inkscape:pageopacity="0"
     inkscape:pageshadow="2"
     inkscape:window-width="1914"
     inkscape:window-height="1016"
     id="namedview3040"
     showgrid="false"
     fit-margin-top="0"
     fit-margin-left="0"
     fit-margin-right="0"
     fit-margin-bottom="0"
     inkscape:zoom="0.7963038"
     inkscape:cx="360.51604"
     inkscape:cy="-189.9467"
     inkscape:window-x="0"
     inkscape:window-y="0"
     inkscape:window-maximized="0"
     inkscape:current-layer="svg3031" />
  <!--Unicode Character 'ROCKET' (U+1F680)-->
  <defs
     id="genericDefs" />
  <g
     id="g3034"
     transform="matrix(0.38272927,0,0,0.38272927,-4.4133278,-28.686744)">
    <g
       id="g3036">
      <path
         d="m 272.8125,120.7969 q 0,22.3593 -13.9219,44.1562 -1.2656,2.1094 -9.8437,11.25 -9.7031,9.7031 -19.2657,19.4063 -16.4531,16.7344 -16.3124,18 l 4.2187,39.7968 q 0.2813,3.375 -3.0234,13.2188 -3.3047,9.8438 -5.6953,12.375 -6.3282,6.3281 -18.8438,18.9844 l -37.8281,37.8281 q -2.3907,-1.9687 -2.8125,-3.375 -0.7032,-2.3906 -2.9532,-18 -1.5468,-10.8281 -4.5,-26.5781 -0.4218,-3.7969 -1.9687,-10.5469 -0.5625,-1.5469 -4.0078,-3.8672 -3.4453,-2.3203 -4.9922,-2.3203 -0.7031,0 -1.2656,1.9688 -2.6719,8.7187 -11.9531,13.7812 -5.4844,2.9531 -18,6.4688 -3.7969,0.5624 -11.1094,2.3906 -13.6406,4.2187 -25.4532,10.5468 -14.4843,7.7344 -51.1874,29.5313 12.375,-21.6563 24.6093,-43.4531 14.7657,-26.5782 20.6719,-44.8594 0.9844,-3.7969 3.0938,-11.1094 1.6874,-5.0625 6.8203,-11.039 5.1328,-5.9766 9.914,-8.086 -1.6875,-4.9218 -1.6875,-5.0625 -1.2656,-2.6719 -3.375,-3.9375 -3.2344,-1.9687 -10.9687,-2.8125 Q 55.2656,204.75 49.3594,204.1875 48.375,204.0469 27,200.3906 q -4.0781,-0.4218 -11.5312,-1.9687 -1.125,-0.8438 -2.9532,-2.25 13.7813,-14.7657 27.5625,-29.5313 16.7344,-17.5781 28.6875,-27.7031 11.3906,-9.7031 25.7344,-8.2969 l 39.5156,3.7969 q 1.4063,0.1406 16.4532,-14.625 8.5781,-8.5781 17.1562,-17.0156 5.3438,-5.0625 16.3125,-14.3438 4.2187,-1.8281 12.2344,-5.625 15.6093,-7.3125 32.2031,-7.3125 18.1406,0 38.5312,5.0625 5.9063,19.125 5.9063,40.2188 z m -136.2656,180 q -14.625,12.9375 -29.5313,25.4531 l 29.3906,-34.4531 q -0.1406,0.9843 -0.1406,2.3906 0,1.125 0.1406,3.3047 0.1407,2.1797 0.1407,3.3047 z m -80.5781,-88.875 -33.1876,29.5312 q -0.5624,0.1407 -0.7031,-1.2656 0,-0.4219 11.3203,-13.2187 11.3204,-12.7969 13.1485,-14.625 1.125,-1.125 3.0937,-1.125 1.125,0 3.1641,0.3515 2.0391,0.3516 3.1641,0.3516 z m 84.7968,110.8125 q 0,1.2656 -0.1406,2.3906 -5.2031,4.2188 -15.0469,11.1094 L 140.625,317.25 q 0,0.9844 0,2.6719 0.1406,2.1093 0.1406,2.8125 z M 31.0781,207.1406 l -18.8437,15.75 -0.7032,-0.8437 12.2344,-14.9063 7.3125,0 z M 263.25,118.6875 260.5781,87.75 l -31.5,-2.6719 q -3.7969,-0.2812 -15.0469,3.0938 -10.6874,3.375 -14.2031,5.625 -9,5.7656 -12.2343,8.2969 -7.4532,5.3437 -10.6876,9.8437 17.5782,2.5313 37.0547,22.0078 19.4766,19.4766 22.0079,37.0547 18.8437,-18.2812 24.3281,-39.5156 3.0937,-11.8125 2.9531,-12.7969 z m -30.0938,55.8281 q -5.2031,-15.4687 -13.0781,-26.7187 -14.2031,-20.1094 -34.3125,-27.2813 -3.7968,-1.9687 -11.8125,-5.2031 l -86.625,86.2031 q 5.625,0.7032 12.5157,5.9063 5.4843,4.2187 11.1093,8.5781 10.125,-8.5781 30.375,-25.5938 8.0157,-7.1718 15.8907,-14.3437 10.4062,-8.2969 18.8437,-8.2969 2.5313,0 4.0781,0.8438 0.1406,0.8437 0.1406,1.6875 0,8.2969 -4.0781,14.0625 -7.875,11.3906 -21.375,27.2812 -11.25,13.2188 -22.5,26.4375 4.3594,5.3438 8.5781,10.8281 4.9219,6.8907 5.4844,12.2344 l 86.7656,-86.625 z m -59.9062,2.25 q 0,-1.8281 -0.7031,-2.5312 l -5.0625,0 -55.8282,51.6094 q 3.9376,3.6562 11.9532,10.8281 18.5625,-21.6563 29.5312,-34.0313 9.1406,-9.4218 19.8282,-23.3437 0.2812,-0.9844 0.2812,-2.5313 z m -49.9219,-29.9531 -34.4531,-3.375 q -0.1406,0 -1.125,0 -5.7656,0 -8.1562,1.6875 -2.3907,1.6875 -10.2657,9.2812 -10.6875,10.9688 -32.3437,32.7657 l 37.6875,8.1562 48.6562,-48.5156 z m 81.7031,112.9219 q 0,0 -1.125,-11.6719 l -2.25,-23.4844 -49.0781,49.2188 8.0157,38.1093 q 6.3281,-6.1874 18.5624,-19.125 7.7344,-7.875 15.3282,-15.6093 10.5468,-11.25 10.5468,-17.4375 z m -77.4843,-3.9375 q 0,-3.9375 -8.7188,-15.3281 -7.0312,-9.1407 -13.0781,-13.6407 -8.8594,-6.6093 -13.3594,-6.6093 -13.6406,0 -22.2187,16.5937 -2.25,3.7969 -5.0625,10.6875 -3.2344,16.875 -12.7969,35.1562 -9.5625,16.3126 -18.9844,32.4844 19.6875,-10.9687 60.1875,-30.5156 4.7813,-1.125 14.3438,-4.0781 7.1718,-2.6719 13.4297,-10.0547 6.2578,-7.3828 6.2578,-14.6953 z"
         id="path3038"
         inkscape:connector-curvature="0"
         style="stroke:none" />
    </g>
  </g>
</svg>
