<?xml version="1.0" encoding="UTF-8" standalone="no"?>
<svg
   xmlns:dc="http://purl.org/dc/elements/1.1/"
   xmlns:cc="http://creativecommons.org/ns#"
   xmlns:rdf="http://www.w3.org/1999/02/22-rdf-syntax-ns#"
   xmlns:svg="http://www.w3.org/2000/svg"
   xmlns="http://www.w3.org/2000/svg"
   xmlns:sodipodi="http://sodipodi.sourceforge.net/DTD/sodipodi-0.dtd"
   xmlns:inkscape="http://www.inkscape.org/namespaces/inkscape"
   color-rendering="auto"
   color-interpolation="auto"
   text-rendering="auto"
   stroke-miterlimit="10"
   shape-rendering="auto"
   font-weight="normal"
   font-style="normal"
   font-size="12"
   image-rendering="auto"
   id="svg2"
   version="1.1"
   inkscape:version="0.48.2 r9819"
   width="100"
   height="100"
   sodipodi:docname="star.svg"
   style="font-size:12px;font-style:normal;font-weight:normal;fill:#000000;fill-opacity:1;stroke:#000000;stroke-width:1;stroke-linecap:square;stroke-linejoin:miter;stroke-miterlimit:10;stroke-opacity:1;stroke-dasharray:none;stroke-dashoffset:0;font-family:Dialog">
  <metadata
     id="metadata13">
    <rdf:RDF>
      <cc:Work
         rdf:about="">
        <dc:format>image/svg+xml</dc:format>
        <dc:type
           rdf:resource="http://purl.org/dc/dcmitype/StillImage" />
      </cc:Work>
    </rdf:RDF>
  </metadata>
  <sodipodi:namedview
     pagecolor="#ffffff"
     bordercolor="#666666"
     borderopacity="1"
     objecttolerance="10"
     gridtolerance="10"
     guidetolerance="10"
     inkscape:pageopacity="0"
     inkscape:pageshadow="2"
     inkscape:window-width="1914"
     inkscape:window-height="1016"
     id="namedview11"
     showgrid="false"
     fit-margin-top="0"
     fit-margin-left="0"
     fit-margin-right="0"
     fit-margin-bottom="0"
     inkscape:zoom="5.0743655"
     inkscape:cx="56.512364"
     inkscape:cy="37.291549"
     inkscape:window-x="0"
     inkscape:window-y="0"
     inkscape:window-maximized="0"
     inkscape:current-layer="svg2" />
  <!--Unicode Character 'BLACK STAR' (U+2605)-->
  <defs
     id="genericDefs" />
  <g
     id="g5"
     transform="matrix(0.46814419,0,0,0.46814419,-5.003291,-82.145139)">
    <g
       id="g7">
      <path
         d="m 140.7656,258.6094 53.4375,-4.5 q 22.5,-1.8282 23.0625,-1.8282 7.0313,0 7.0313,6.0469 0,2.3907 -1.4063,3.7266 -1.4062,1.3359 -21.5156,14.1328 l -45,28.8281 28.8281,72.2813 q 0.5625,1.125 0.5625,3.375 0,2.1093 -1.5468,3.6562 -1.5469,1.5469 -3.375,1.5469 -1.6876,0 -3.5157,-1.1953 Q 175.5,383.4844 157.5,368.0156 l -39.9375,-34.5937 -39.375,34.0312 q -18.5625,16.0313 -20.3203,17.2266 -1.7578,1.1953 -3.4453,1.1953 -1.9688,0 -3.586,-1.6172 -1.6171,-1.6172 -1.6171,-3.5859 0,-1.2657 8.0156,-21.375 L 78.6094,305.0156 32.7656,275.625 Q 13.3594,263.25 12.0234,261.9844 q -1.3359,-1.2656 -1.3359,-3.6563 0,-6.1875 7.1719,-6.1875 0.5625,0 19.6875,1.6875 l 56.6719,4.7813 12.7968,-54.4219 q 4.9219,-21.2344 6.1172,-23.3437 1.1953,-2.1094 4.4297,-2.1094 3.375,0 4.5,2.3203 1.125,2.3203 6.4687,25.2422 l 12.2344,52.3125 z"
         id="path9"
         inkscape:connector-curvature="0"
         style="stroke:none" />
    </g>
  </g>
</svg>
